<svg width="1440" height="401" viewBox="0 0 1440 401" fill="none" xmlns="http://www.w3.org/2000/svg">
<rect x="432" y="235.75" width="576" height="72" rx="36" stroke="white" stroke-width="2"/>
<path d="M453.866 276.75H460.535V275.578H455.187V271.871H460.109V270.699H455.187V267.013H460.45V265.841H453.866V276.75ZM463.917 271.828C463.917 270.401 464.802 269.591 466.006 269.591C467.172 269.591 467.881 270.353 467.881 271.636V276.75H469.138V271.551C469.138 269.463 468.024 268.462 466.368 268.462C465.132 268.462 464.365 269.016 463.981 269.847H463.875V268.568H462.66V276.75H463.917V271.828ZM474.993 268.568H473.246V266.608H471.989V268.568H470.753V269.634H471.989V274.747C471.989 276.175 473.139 276.857 474.205 276.857C474.673 276.857 474.972 276.771 475.142 276.707L474.886 275.578C474.78 275.599 474.609 275.642 474.332 275.642C473.778 275.642 473.246 275.472 473.246 274.406V269.634H474.993V268.568ZM480.226 276.92C481.888 276.92 483.103 276.089 483.486 274.854L482.272 274.513C481.952 275.365 481.212 275.791 480.226 275.791C478.751 275.791 477.734 274.838 477.675 273.085H483.614V272.553C483.614 269.506 481.803 268.462 480.099 268.462C477.883 268.462 476.413 270.209 476.413 272.723C476.413 275.237 477.861 276.92 480.226 276.92ZM477.675 271.999C477.76 270.725 478.66 269.591 480.099 269.591C481.462 269.591 482.336 270.614 482.336 271.999H477.675ZM485.527 276.75H486.784V271.572C486.784 270.464 487.657 269.655 488.85 269.655C489.186 269.655 489.532 269.719 489.617 269.74V268.462C489.474 268.451 489.143 268.44 488.957 268.44C487.977 268.44 487.125 268.994 486.826 269.804H486.741V268.568H485.527V276.75ZM496.136 279.818C497.271 279.818 498.07 279.216 498.544 277.943L502.027 268.589L500.653 268.568L498.395 275.088H498.309L496.051 268.568H494.687L497.713 276.793L497.478 277.432C497.02 278.678 496.456 278.795 495.539 278.561L495.22 279.669C495.348 279.733 495.71 279.818 496.136 279.818ZM506.722 276.92C508.937 276.92 510.429 275.237 510.429 272.702C510.429 270.145 508.937 268.462 506.722 268.462C504.506 268.462 503.014 270.145 503.014 272.702C503.014 275.237 504.506 276.92 506.722 276.92ZM506.722 275.791C505.038 275.791 504.271 274.342 504.271 272.702C504.271 271.061 505.038 269.591 506.722 269.591C508.405 269.591 509.172 271.061 509.172 272.702C509.172 274.342 508.405 275.791 506.722 275.791ZM517.504 273.405C517.504 274.939 516.332 275.642 515.395 275.642C514.351 275.642 513.605 274.875 513.605 273.682V268.568H512.348V273.767C512.348 275.855 513.456 276.857 514.99 276.857C516.226 276.857 517.035 276.196 517.419 275.365H517.504V276.75H518.761V268.568H517.504V273.405ZM521.064 276.75H522.321V271.572C522.321 270.464 523.194 269.655 524.388 269.655C524.723 269.655 525.069 269.719 525.155 269.74V268.462C525.011 268.451 524.68 268.44 524.494 268.44C523.514 268.44 522.662 268.994 522.363 269.804H522.278V268.568H521.064V276.75ZM534.294 276.92C535.956 276.92 537.17 276.089 537.554 274.854L536.339 274.513C536.02 275.365 535.279 275.791 534.294 275.791C532.818 275.791 531.801 274.838 531.742 273.085H537.682V272.553C537.682 269.506 535.871 268.462 534.166 268.462C531.95 268.462 530.48 270.209 530.48 272.723C530.48 275.237 531.929 276.92 534.294 276.92ZM531.742 271.999C531.828 270.725 532.728 269.591 534.166 269.591C535.53 269.591 536.403 270.614 536.403 271.999H531.742ZM539.594 276.75H540.851V271.636C540.851 270.438 541.725 269.591 542.705 269.591C543.658 269.591 544.324 270.214 544.324 271.146V276.75H545.602V271.423C545.602 270.369 546.263 269.591 547.414 269.591C548.308 269.591 549.075 270.065 549.075 271.274V276.75H550.333V271.274C550.333 269.351 549.299 268.462 547.84 268.462C546.668 268.462 545.81 269 545.389 269.847H545.304C544.899 268.973 544.186 268.462 543.11 268.462C542.044 268.462 541.256 268.973 540.915 269.847H540.808V268.568H539.594V276.75ZM555.039 276.942C556.466 276.942 557.212 276.175 557.468 275.642H557.532V276.75H558.789V271.359C558.789 268.76 556.807 268.462 555.763 268.462C554.527 268.462 553.121 268.888 552.482 270.379L553.675 270.805C553.952 270.209 554.607 269.57 555.806 269.57C556.962 269.57 557.532 270.182 557.532 271.232V271.274C557.532 271.881 556.914 271.828 555.422 272.02C553.904 272.217 552.248 272.553 552.248 274.428C552.248 276.026 553.483 276.942 555.039 276.942ZM555.23 275.812C554.229 275.812 553.505 275.365 553.505 274.491C553.505 273.533 554.378 273.234 555.358 273.107C555.891 273.043 557.319 272.893 557.532 272.638V273.788C557.532 274.811 556.722 275.812 555.23 275.812ZM561.083 276.75H562.34V268.568H561.083V276.75ZM561.722 267.205C562.212 267.205 562.617 266.821 562.617 266.352C562.617 265.884 562.212 265.5 561.722 265.5C561.232 265.5 560.828 265.884 560.828 266.352C560.828 266.821 561.232 267.205 561.722 267.205ZM565.9 265.841H564.643V276.75H565.9V265.841ZM574.829 276.942C576.256 276.942 577.002 276.175 577.258 275.642H577.322V276.75H578.579V271.359C578.579 268.76 576.597 268.462 575.553 268.462C574.317 268.462 572.911 268.888 572.272 270.379L573.465 270.805C573.742 270.209 574.397 269.57 575.596 269.57C576.752 269.57 577.322 270.182 577.322 271.232V271.274C577.322 271.881 576.704 271.828 575.212 272.02C573.694 272.217 572.038 272.553 572.038 274.428C572.038 276.026 573.273 276.942 574.829 276.942ZM575.021 275.812C574.019 275.812 573.295 275.365 573.295 274.491C573.295 273.533 574.168 273.234 575.148 273.107C575.681 273.043 577.109 272.893 577.322 272.638V273.788C577.322 274.811 576.512 275.812 575.021 275.812ZM583.963 276.92C585.539 276.92 586.072 275.94 586.349 275.493H586.498V276.75H587.713V265.841H586.456V269.868H586.349C586.072 269.442 585.582 268.462 583.984 268.462C581.917 268.462 580.49 270.102 580.49 272.68C580.49 275.28 581.917 276.92 583.963 276.92ZM584.133 275.791C582.556 275.791 581.747 274.406 581.747 272.659C581.747 270.933 582.535 269.591 584.133 269.591C585.667 269.591 586.477 270.827 586.477 272.659C586.477 274.513 585.646 275.791 584.133 275.791ZM593.279 276.92C594.856 276.92 595.388 275.94 595.665 275.493H595.815V276.75H597.029V265.841H595.772V269.868H595.665C595.388 269.442 594.898 268.462 593.3 268.462C591.234 268.462 589.806 270.102 589.806 272.68C589.806 275.28 591.234 276.92 593.279 276.92ZM593.45 275.791C591.873 275.791 591.063 274.406 591.063 272.659C591.063 270.933 591.852 269.591 593.45 269.591C594.984 269.591 595.793 270.827 595.793 272.659C595.793 274.513 594.962 275.791 593.45 275.791ZM599.506 276.75H600.763V271.572C600.763 270.464 601.637 269.655 602.83 269.655C603.165 269.655 603.512 269.719 603.597 269.74V268.462C603.453 268.451 603.123 268.44 602.936 268.44C601.956 268.44 601.104 268.994 600.806 269.804H600.721V268.568H599.506V276.75ZM608.268 276.92C609.93 276.92 611.145 276.089 611.528 274.854L610.314 274.513C609.994 275.365 609.254 275.791 608.268 275.791C606.793 275.791 605.776 274.838 605.717 273.085H611.656V272.553C611.656 269.506 609.845 268.462 608.141 268.462C605.925 268.462 604.455 270.209 604.455 272.723C604.455 275.237 605.903 276.92 608.268 276.92ZM605.717 271.999C605.802 270.725 606.702 269.591 608.141 269.591C609.504 269.591 610.378 270.614 610.378 271.999H605.717ZM619.364 270.401C618.97 269.239 618.086 268.462 616.466 268.462C614.74 268.462 613.462 269.442 613.462 270.827C613.462 271.956 614.133 272.712 615.635 273.064L616.999 273.384C617.825 273.575 618.213 273.969 618.213 274.534C618.213 275.237 617.468 275.812 616.296 275.812C615.268 275.812 614.623 275.37 614.4 274.491L613.206 274.79C613.499 276.18 614.645 276.92 616.317 276.92C618.219 276.92 619.513 275.882 619.513 274.47C619.513 273.33 618.799 272.611 617.34 272.254L616.125 271.956C615.156 271.716 614.719 271.391 614.719 270.763C614.719 270.06 615.465 269.548 616.466 269.548C617.564 269.548 618.016 270.156 618.235 270.72L619.364 270.401ZM627.201 270.401C626.807 269.239 625.922 268.462 624.303 268.462C622.577 268.462 621.299 269.442 621.299 270.827C621.299 271.956 621.97 272.712 623.472 273.064L624.836 273.384C625.661 273.575 626.05 273.969 626.05 274.534C626.05 275.237 625.305 275.812 624.133 275.812C623.105 275.812 622.46 275.37 622.236 274.491L621.043 274.79C621.336 276.18 622.481 276.92 624.154 276.92C626.056 276.92 627.35 275.882 627.35 274.47C627.35 273.33 626.636 272.611 625.177 272.254L623.962 271.956C622.993 271.716 622.556 271.391 622.556 270.763C622.556 270.06 623.302 269.548 624.303 269.548C625.4 269.548 625.853 270.156 626.072 270.72L627.201 270.401Z" fill="white"/>
<path d="M865 271.75C865 254.629 878.879 240.75 896 240.75H973C990.121 240.75 1004 254.629 1004 271.75C1004 288.871 990.121 302.75 973 302.75H896C878.879 302.75 865 288.871 865 271.75Z" fill="#EB5757"/>
<path d="M897.11 277.869C896.317 277.869 895.603 277.733 894.968 277.461C894.333 277.178 893.835 276.781 893.472 276.271C893.109 275.761 892.928 275.166 892.928 274.486H895.002C895.047 274.996 895.246 275.415 895.597 275.744C895.96 276.073 896.464 276.237 897.11 276.237C897.779 276.237 898.3 276.078 898.674 275.761C899.048 275.432 899.235 275.013 899.235 274.503C899.235 274.106 899.116 273.783 898.878 273.534C898.651 273.285 898.362 273.092 898.011 272.956C897.671 272.82 897.195 272.673 896.583 272.514C895.812 272.31 895.183 272.106 894.696 271.902C894.22 271.687 893.812 271.358 893.472 270.916C893.132 270.474 892.962 269.885 892.962 269.148C892.962 268.468 893.132 267.873 893.472 267.363C893.812 266.853 894.288 266.462 894.9 266.19C895.512 265.918 896.22 265.782 897.025 265.782C898.17 265.782 899.105 266.071 899.83 266.649C900.567 267.216 900.975 267.998 901.054 268.995H898.912C898.878 268.564 898.674 268.196 898.3 267.89C897.926 267.584 897.433 267.431 896.821 267.431C896.266 267.431 895.812 267.573 895.461 267.856C895.11 268.139 894.934 268.547 894.934 269.08C894.934 269.443 895.042 269.743 895.257 269.981C895.484 270.208 895.767 270.389 896.107 270.525C896.447 270.661 896.912 270.808 897.501 270.967C898.283 271.182 898.918 271.398 899.405 271.613C899.904 271.828 900.323 272.163 900.663 272.616C901.014 273.058 901.19 273.653 901.19 274.401C901.19 275.002 901.026 275.568 900.697 276.101C900.38 276.634 899.909 277.064 899.286 277.393C898.674 277.71 897.949 277.869 897.11 277.869ZM911.96 268.383V277.75H910.022V276.645C909.716 277.03 909.313 277.336 908.815 277.563C908.327 277.778 907.806 277.886 907.251 277.886C906.514 277.886 905.851 277.733 905.262 277.427C904.684 277.121 904.225 276.668 903.885 276.067C903.556 275.466 903.392 274.741 903.392 273.891V268.383H905.313V273.602C905.313 274.441 905.522 275.087 905.942 275.54C906.361 275.982 906.933 276.203 907.659 276.203C908.384 276.203 908.956 275.982 909.376 275.54C909.806 275.087 910.022 274.441 910.022 273.602V268.383H911.96ZM916.455 269.777C916.783 269.324 917.231 268.955 917.798 268.672C918.376 268.377 919.016 268.23 919.719 268.23C920.546 268.23 921.294 268.428 921.963 268.825C922.631 269.222 923.158 269.788 923.544 270.525C923.929 271.25 924.122 272.083 924.122 273.024C924.122 273.965 923.929 274.809 923.544 275.557C923.158 276.294 922.626 276.872 921.946 277.291C921.277 277.699 920.535 277.903 919.719 277.903C918.993 277.903 918.347 277.761 917.781 277.478C917.225 277.195 916.783 276.832 916.455 276.39V277.75H914.517V265.17H916.455V269.777ZM922.15 273.024C922.15 272.378 922.014 271.823 921.742 271.358C921.481 270.882 921.13 270.525 920.688 270.287C920.257 270.038 919.792 269.913 919.294 269.913C918.806 269.913 918.342 270.038 917.9 270.287C917.469 270.536 917.118 270.899 916.846 271.375C916.585 271.851 916.455 272.412 916.455 273.058C916.455 273.704 916.585 274.271 916.846 274.758C917.118 275.234 917.469 275.597 917.9 275.846C918.342 276.095 918.806 276.22 919.294 276.22C919.792 276.22 920.257 276.095 920.688 275.846C921.13 275.585 921.481 275.211 921.742 274.724C922.014 274.237 922.15 273.67 922.15 273.024ZM929.438 277.903C928.702 277.903 928.039 277.773 927.449 277.512C926.871 277.24 926.412 276.877 926.072 276.424C925.732 275.959 925.551 275.444 925.528 274.877H927.534C927.568 275.274 927.755 275.608 928.095 275.88C928.447 276.141 928.883 276.271 929.404 276.271C929.948 276.271 930.368 276.169 930.662 275.965C930.968 275.75 931.121 275.478 931.121 275.149C931.121 274.798 930.951 274.537 930.611 274.367C930.283 274.197 929.756 274.01 929.03 273.806C928.328 273.613 927.755 273.426 927.313 273.245C926.871 273.064 926.486 272.786 926.157 272.412C925.84 272.038 925.681 271.545 925.681 270.933C925.681 270.434 925.829 269.981 926.123 269.573C926.418 269.154 926.837 268.825 927.381 268.587C927.937 268.349 928.571 268.23 929.285 268.23C930.351 268.23 931.206 268.502 931.852 269.046C932.51 269.579 932.861 270.31 932.906 271.239H930.968C930.934 270.82 930.764 270.485 930.458 270.236C930.152 269.987 929.739 269.862 929.217 269.862C928.707 269.862 928.316 269.958 928.044 270.151C927.772 270.344 927.636 270.599 927.636 270.916C927.636 271.165 927.727 271.375 927.908 271.545C928.09 271.715 928.311 271.851 928.571 271.953C928.832 272.044 929.217 272.163 929.727 272.31C930.407 272.491 930.963 272.678 931.393 272.871C931.835 273.052 932.215 273.324 932.532 273.687C932.85 274.05 933.014 274.531 933.025 275.132C933.025 275.665 932.878 276.141 932.583 276.56C932.289 276.979 931.869 277.308 931.325 277.546C930.793 277.784 930.164 277.903 929.438 277.903ZM934.473 273.058C934.473 272.095 934.666 271.25 935.051 270.525C935.448 269.788 935.992 269.222 936.683 268.825C937.375 268.428 938.168 268.23 939.063 268.23C940.197 268.23 941.132 268.502 941.868 269.046C942.616 269.579 943.121 270.344 943.381 271.341H941.29C941.12 270.876 940.848 270.514 940.474 270.253C940.1 269.992 939.63 269.862 939.063 269.862C938.27 269.862 937.635 270.145 937.159 270.712C936.695 271.267 936.462 272.049 936.462 273.058C936.462 274.067 936.695 274.854 937.159 275.421C937.635 275.988 938.27 276.271 939.063 276.271C940.185 276.271 940.928 275.778 941.29 274.792H943.381C943.109 275.744 942.599 276.503 941.851 277.07C941.103 277.625 940.174 277.903 939.063 277.903C938.168 277.903 937.375 277.705 936.683 277.308C935.992 276.9 935.448 276.333 935.051 275.608C934.666 274.871 934.473 274.021 934.473 273.058ZM947.251 269.743C947.534 269.267 947.908 268.899 948.373 268.638C948.849 268.366 949.41 268.23 950.056 268.23V270.236H949.563C948.803 270.236 948.225 270.429 947.829 270.814C947.443 271.199 947.251 271.868 947.251 272.82V277.75H945.313V268.383H947.251V269.743ZM952.823 267.142C952.472 267.142 952.177 267.023 951.939 266.785C951.701 266.547 951.582 266.252 951.582 265.901C951.582 265.55 951.701 265.255 951.939 265.017C952.177 264.779 952.472 264.66 952.823 264.66C953.163 264.66 953.452 264.779 953.69 265.017C953.928 265.255 954.047 265.55 954.047 265.901C954.047 266.252 953.928 266.547 953.69 266.785C953.452 267.023 953.163 267.142 952.823 267.142ZM953.775 268.383V277.75H951.837V268.383H953.775ZM958.257 269.777C958.586 269.324 959.034 268.955 959.6 268.672C960.178 268.377 960.819 268.23 961.521 268.23C962.349 268.23 963.097 268.428 963.765 268.825C964.434 269.222 964.961 269.788 965.346 270.525C965.732 271.25 965.924 272.083 965.924 273.024C965.924 273.965 965.732 274.809 965.346 275.557C964.961 276.294 964.428 276.872 963.748 277.291C963.08 277.699 962.337 277.903 961.521 277.903C960.796 277.903 960.15 277.761 959.583 277.478C959.028 277.195 958.586 276.832 958.257 276.39V277.75H956.319V265.17H958.257V269.777ZM963.952 273.024C963.952 272.378 963.816 271.823 963.544 271.358C963.284 270.882 962.932 270.525 962.49 270.287C962.06 270.038 961.595 269.913 961.096 269.913C960.609 269.913 960.144 270.038 959.702 270.287C959.272 270.536 958.92 270.899 958.648 271.375C958.388 271.851 958.257 272.412 958.257 273.058C958.257 273.704 958.388 274.271 958.648 274.758C958.92 275.234 959.272 275.597 959.702 275.846C960.144 276.095 960.609 276.22 961.096 276.22C961.595 276.22 962.06 276.095 962.49 275.846C962.932 275.585 963.284 275.211 963.544 274.724C963.816 274.237 963.952 273.67 963.952 273.024ZM976.426 272.837C976.426 273.188 976.403 273.506 976.358 273.789H969.201C969.258 274.537 969.535 275.138 970.034 275.591C970.533 276.044 971.145 276.271 971.87 276.271C972.913 276.271 973.649 275.835 974.08 274.962H976.171C975.888 275.823 975.372 276.532 974.624 277.087C973.887 277.631 972.969 277.903 971.87 277.903C970.975 277.903 970.17 277.705 969.456 277.308C968.753 276.9 968.198 276.333 967.79 275.608C967.393 274.871 967.195 274.021 967.195 273.058C967.195 272.095 967.388 271.25 967.773 270.525C968.17 269.788 968.719 269.222 969.422 268.825C970.136 268.428 970.952 268.23 971.87 268.23C972.754 268.23 973.542 268.423 974.233 268.808C974.924 269.193 975.463 269.737 975.848 270.44C976.233 271.131 976.426 271.93 976.426 272.837ZM974.403 272.225C974.392 271.511 974.137 270.939 973.638 270.508C973.139 270.077 972.522 269.862 971.785 269.862C971.116 269.862 970.544 270.077 970.068 270.508C969.592 270.927 969.309 271.5 969.218 272.225H974.403Z" fill="white"/>
<g opacity="0.6">
<path opacity="0.6" d="M80.8421 47.7917L-9.60258 62.7348L-83.007 110.579L-119.906 210.723L-75.5354 325.811L19.3659 374.572L104.174 361.858L182.756 311.785L220.573 209.871L176.596 96.5532L80.8421 47.7917Z" stroke="#0071BC" stroke-width="0.8601" stroke-miterlimit="10"/>
<path opacity="0.6" d="M19.3659 374.572L-12.683 342.064L-16.2221 237.529L9.27282 132.534L-9.60259 62.7346L-83.859 157.177L-119.906 210.723L-85.6285 265.645L-12.683 342.064L104.174 361.857L172.204 270.495L176.595 161.962V96.5531" stroke="#0071BC" stroke-width="0.8601" stroke-miterlimit="10"/>
<path opacity="0.6" d="M80.842 47.7917L100.176 85.0838L98.0134 193.159L74.2881 296.842L104.174 361.858" stroke="#0071BC" stroke-width="0.8601" stroke-miterlimit="10"/>
<path opacity="0.6" d="M-9.93042 62.7346L100.504 85.2802L176.595 96.5531" stroke="#0071BC" stroke-width="0.8601" stroke-miterlimit="10"/>
<path opacity="0.6" d="M-83.728 157.571L8.81392 132.404L100.504 85.2805L176.333 161.7L220.245 209.74L172.204 270.495" stroke="#0071BC" stroke-width="0.8601" stroke-miterlimit="10"/>
<path opacity="0.6" d="M-84.0557 157.571L-16.6809 237.529L73.8293 296.842" stroke="#0071BC" stroke-width="0.8601" stroke-miterlimit="10"/>
<path opacity="0.6" d="M182.756 312.178L172.204 270.036L97.5546 192.7L9.27271 132.141" stroke="#0071BC" stroke-width="0.8601" stroke-miterlimit="10"/>
<path opacity="0.6" d="M176.595 162.42L98.0134 193.158L-16.6809 237.529L-86.0874 266.104" stroke="#0071BC" stroke-width="0.8601" stroke-miterlimit="10"/>
<path opacity="0.6" d="M-75.5354 325.811L-13.1417 341.606L73.3706 296.842L172.204 270.495" stroke="#0071BC" stroke-width="0.8601" stroke-miterlimit="10"/>
<g opacity="0.6">
<path opacity="0.6" d="M179.873 96.8153C179.873 98.716 178.365 100.223 176.464 100.223C174.564 100.223 173.056 98.716 173.056 96.8153C173.056 94.9147 174.564 93.4073 176.464 93.4073C178.365 93.3417 179.873 94.9147 179.873 96.8153Z" fill="#0071BC"/>
<path opacity="0.6" d="M180.069 161.962C180.069 163.862 178.562 165.37 176.661 165.37C174.76 165.37 173.253 163.862 173.253 161.962C173.253 160.061 174.76 158.554 176.661 158.554C178.496 158.554 180.069 160.061 180.069 161.962Z" fill="#0071BC"/>
<path opacity="0.6" d="M101.422 193.159C101.422 195.059 99.9142 196.567 98.0135 196.567C96.1129 196.567 94.6055 195.059 94.6055 193.159C94.6055 191.258 96.1129 189.75 98.0135 189.75C99.9142 189.75 101.422 191.258 101.422 193.159Z" fill="#0071BC"/>
<path opacity="0.6" d="M175.678 270.036C175.678 271.937 174.171 273.445 172.27 273.445C170.369 273.445 168.862 271.937 168.862 270.036C168.862 268.136 170.369 266.628 172.27 266.628C174.105 266.628 175.678 268.136 175.678 270.036Z" fill="#0071BC"/>
<path opacity="0.6" d="M186.23 311.785C186.23 313.686 184.722 315.193 182.822 315.193C180.921 315.193 179.414 313.686 179.414 311.785C179.414 309.885 180.921 308.377 182.822 308.377C184.657 308.312 186.23 309.885 186.23 311.785Z" fill="#0071BC"/>
<path opacity="0.6" d="M107.582 361.595C107.582 363.496 106.075 365.003 104.174 365.003C102.274 365.003 100.766 363.43 100.766 361.595C100.766 359.694 102.274 358.187 104.174 358.187C106.009 358.187 107.582 359.694 107.582 361.595Z" fill="#0071BC"/>
<path opacity="0.6" d="M77.696 296.383C77.696 298.284 76.1886 299.791 74.288 299.791C72.3873 299.791 70.8799 298.284 70.8799 296.383C70.8799 294.483 72.3873 292.975 74.288 292.975C76.1886 292.975 77.696 294.483 77.696 296.383Z" fill="#0071BC"/>
<path opacity="0.6" d="M21.9221 374.376C21.9221 376.276 20.4147 377.784 18.514 377.784C16.6134 377.784 15.106 376.211 15.106 374.376C15.106 372.475 16.6134 370.968 18.514 370.968C20.4147 370.902 21.9221 372.475 21.9221 374.376Z" fill="#0071BC"/>
<path opacity="0.6" d="M12.6809 132.338C12.6809 134.238 11.1735 135.746 9.2728 135.746C7.37216 135.746 5.86475 134.238 5.86475 132.338C5.86475 130.437 7.37216 128.93 9.2728 128.93C11.1735 128.864 12.6809 130.437 12.6809 132.338Z" fill="#0071BC"/>
<path opacity="0.6" d="M104.109 85.6078C104.109 87.5084 102.601 89.0159 100.701 89.0159C98.7999 89.0159 97.2925 87.5084 97.2925 85.6078C97.2925 83.7071 98.7999 82.1997 100.701 82.1997C102.601 82.1342 104.109 83.7071 104.109 85.6078Z" fill="#0071BC"/>
<path opacity="0.6" d="M84.3156 47.7916C84.3156 49.6923 82.8082 51.1997 80.9076 51.1997C79.0069 51.1997 77.4995 49.6923 77.4995 47.7916C77.4995 45.891 79.0069 44.3836 80.9076 44.3836C82.7427 44.318 84.3156 45.891 84.3156 47.7916Z" fill="#0071BC"/>
</g>
</g>
<path opacity="0.2" d="M1407.48 287.805L1317.05 130.802L1318.83 284.092L1407.48 287.805Z" stroke="#329DE3" stroke-miterlimit="10"/>
<path opacity="0.2" d="M1412.16 284.063L1453.04 208.846L1321.8 127.139" stroke="#329DE3" stroke-miterlimit="10"/>
<path opacity="0.2" d="M1454.18 208.869L1368.37 212.442L1317.28 285.033" stroke="#329DE3" stroke-miterlimit="10"/>
<path opacity="0.2" d="M1454.22 219.466L1412.75 295.875L1321.72 289.724L1446.46 353.147L1454.22 219.466Z" stroke="#329DE3" stroke-miterlimit="10"/>
<path opacity="0.2" d="M1413.15 296.248L1443.62 350.765" stroke="#329DE3" stroke-miterlimit="10"/>
<path opacity="0.2" d="M1403.06 284.531C1402.61 283.74 1402.38 282.851 1402.4 281.979C1402.43 281.106 1402.71 280.288 1403.2 279.628C1403.7 278.968 1404.39 278.495 1405.19 278.269C1405.99 278.044 1406.86 278.075 1407.69 278.36C1408.52 278.645 1409.28 279.17 1409.87 279.869C1410.46 280.569 1410.85 281.411 1410.99 282.29C1411.14 283.169 1411.03 284.045 1410.68 284.808C1410.34 285.57 1409.77 286.186 1409.04 286.576C1408.56 286.836 1408.02 286.989 1407.46 287.027C1406.9 287.066 1406.32 286.987 1405.77 286.797C1405.21 286.607 1404.69 286.309 1404.22 285.921C1403.76 285.532 1403.36 285.06 1403.06 284.531V284.531Z" stroke="#329DE3" stroke-miterlimit="10"/>
<path opacity="0.2" d="M1311.61 287.008C1311.15 286.213 1310.91 285.318 1310.93 284.437C1310.95 283.555 1311.22 282.727 1311.72 282.057C1312.21 281.387 1312.9 280.905 1313.71 280.674C1314.51 280.442 1315.39 280.47 1316.23 280.755C1317.08 281.04 1317.84 281.569 1318.44 282.275C1319.03 282.98 1319.42 283.83 1319.57 284.717C1319.71 285.604 1319.6 286.487 1319.25 287.255C1318.9 288.023 1318.32 288.641 1317.59 289.03C1316.62 289.554 1315.44 289.635 1314.32 289.256C1313.2 288.876 1312.23 288.068 1311.61 287.008V287.008Z" stroke="#329DE3" stroke-miterlimit="10"/>
<path opacity="0.2" d="M1318.99 133.609C1318.53 132.815 1318.29 131.922 1318.31 131.041C1318.33 130.16 1318.6 129.333 1319.09 128.663C1319.59 127.993 1320.28 127.51 1321.08 127.277C1321.88 127.044 1322.76 127.07 1323.6 127.353C1324.44 127.635 1325.21 128.161 1325.81 128.864C1326.4 129.567 1326.8 130.414 1326.95 131.3C1327.09 132.186 1326.99 133.069 1326.64 133.838C1326.29 134.607 1325.71 135.228 1324.99 135.621C1324.01 136.146 1322.84 136.229 1321.72 135.852C1320.59 135.474 1319.61 134.668 1318.99 133.609V133.609Z" stroke="#329DE3" stroke-miterlimit="10"/>
<path opacity="0.2" d="M1409.33 295.212C1408.87 294.417 1408.64 293.524 1408.66 292.645C1408.68 291.766 1408.96 290.941 1409.45 290.274C1409.95 289.607 1410.64 289.128 1411.44 288.898C1412.25 288.668 1413.12 288.697 1413.96 288.981C1414.8 289.266 1415.57 289.793 1416.16 290.496C1416.75 291.199 1417.15 292.046 1417.3 292.931C1417.44 293.816 1417.33 294.698 1416.99 295.466C1416.64 296.234 1416.06 296.853 1415.33 297.246C1414.85 297.51 1414.31 297.667 1413.75 297.707C1413.19 297.748 1412.61 297.671 1412.05 297.482C1411.49 297.293 1410.96 296.995 1410.5 296.605C1410.03 296.216 1409.63 295.742 1409.33 295.212V295.212Z" stroke="#329DE3" stroke-miterlimit="10"/>
<path opacity="0.2" d="M1365.29 216.429C1364.83 215.634 1364.6 214.741 1364.62 213.862C1364.64 212.983 1364.92 212.158 1365.41 211.491C1365.91 210.824 1366.6 210.345 1367.4 210.115C1368.21 209.885 1369.08 209.914 1369.92 210.198C1370.76 210.483 1371.53 211.01 1372.12 211.713C1372.71 212.416 1373.11 213.263 1373.26 214.148C1373.4 215.032 1373.29 215.915 1372.95 216.683C1372.6 217.451 1372.02 218.07 1371.29 218.463C1370.81 218.727 1370.27 218.883 1369.71 218.924C1369.15 218.965 1368.57 218.888 1368.01 218.699C1367.45 218.51 1366.92 218.212 1366.46 217.822C1365.99 217.433 1365.59 216.959 1365.29 216.429V216.429Z" stroke="#329DE3" stroke-miterlimit="10"/>
<path opacity="0.2" d="M1317.87 296.392C1317.41 295.596 1317.18 294.703 1317.21 293.825C1317.23 292.948 1317.51 292.125 1318.01 291.462C1318.51 290.798 1319.2 290.322 1320 290.096C1320.81 289.869 1321.68 289.9 1322.52 290.187C1323.36 290.473 1324.12 291.001 1324.71 291.704C1325.31 292.408 1325.7 293.255 1325.84 294.138C1325.99 295.022 1325.88 295.903 1325.53 296.67C1325.18 297.436 1324.61 298.055 1323.88 298.447C1323.4 298.709 1322.86 298.863 1322.29 298.901C1321.73 298.94 1321.15 298.861 1320.59 298.67C1320.03 298.479 1319.5 298.179 1319.03 297.788C1318.57 297.397 1318.17 296.923 1317.87 296.392Z" stroke="#329DE3" stroke-miterlimit="10"/>
<path opacity="0.2" d="M1440.42 352.537C1439.96 351.743 1439.72 350.848 1439.74 349.966C1439.76 349.085 1440.03 348.256 1440.53 347.586C1441.02 346.916 1441.71 346.435 1442.52 346.203C1443.32 345.972 1444.2 346 1445.04 346.285C1445.89 346.57 1446.65 347.099 1447.25 347.804C1447.84 348.51 1448.23 349.36 1448.38 350.246C1448.52 351.133 1448.41 352.017 1448.06 352.785C1447.71 353.553 1447.13 354.171 1446.4 354.56C1445.43 355.084 1444.25 355.165 1443.13 354.785C1442.01 354.406 1441.04 353.597 1440.42 352.537V352.537Z" stroke="#329DE3" stroke-miterlimit="10"/>
<path d="M523 135.75H514.45L500.15 114.1V135.75H491.6V100.65H500.15L514.45 122.4V100.65H523V135.75ZM555.498 121.35C555.498 122.15 555.448 122.983 555.348 123.85H535.998C536.131 125.583 536.681 126.917 537.648 127.85C538.648 128.75 539.864 129.2 541.298 129.2C543.431 129.2 544.914 128.3 545.748 126.5H554.848C554.381 128.333 553.531 129.983 552.298 131.45C551.098 132.917 549.581 134.067 547.748 134.9C545.914 135.733 543.864 136.15 541.598 136.15C538.864 136.15 536.431 135.567 534.298 134.4C532.164 133.233 530.498 131.567 529.298 129.4C528.098 127.233 527.498 124.7 527.498 121.8C527.498 118.9 528.081 116.367 529.248 114.2C530.448 112.033 532.114 110.367 534.248 109.2C536.381 108.033 538.831 107.45 541.598 107.45C544.298 107.45 546.698 108.017 548.798 109.15C550.898 110.283 552.531 111.9 553.698 114C554.898 116.1 555.498 118.55 555.498 121.35ZM546.748 119.1C546.748 117.633 546.248 116.467 545.248 115.6C544.248 114.733 542.998 114.3 541.498 114.3C540.064 114.3 538.848 114.717 537.848 115.55C536.881 116.383 536.281 117.567 536.048 119.1H546.748ZM572.558 127.75L578.608 107.85H587.708L577.808 135.75H567.258L557.358 107.85H566.508L572.558 127.75ZM617.607 121.35C617.607 122.15 617.557 122.983 617.457 123.85H598.107C598.24 125.583 598.79 126.917 599.757 127.85C600.757 128.75 601.974 129.2 603.407 129.2C605.54 129.2 607.024 128.3 607.857 126.5H616.957C616.49 128.333 615.64 129.983 614.407 131.45C613.207 132.917 611.69 134.067 609.857 134.9C608.024 135.733 605.974 136.15 603.707 136.15C600.974 136.15 598.54 135.567 596.407 134.4C594.274 133.233 592.607 131.567 591.407 129.4C590.207 127.233 589.607 124.7 589.607 121.8C589.607 118.9 590.19 116.367 591.357 114.2C592.557 112.033 594.224 110.367 596.357 109.2C598.49 108.033 600.94 107.45 603.707 107.45C606.407 107.45 608.807 108.017 610.907 109.15C613.007 110.283 614.64 111.9 615.807 114C617.007 116.1 617.607 118.55 617.607 121.35ZM608.857 119.1C608.857 117.633 608.357 116.467 607.357 115.6C606.357 114.733 605.107 114.3 603.607 114.3C602.174 114.3 600.957 114.717 599.957 115.55C598.99 116.383 598.39 117.567 598.157 119.1H608.857ZM630.668 112.5C631.668 110.967 632.918 109.767 634.418 108.9C635.918 108 637.584 107.55 639.418 107.55V116.6H637.068C634.934 116.6 633.334 117.067 632.268 118C631.201 118.9 630.668 120.5 630.668 122.8V135.75H622.118V107.85H630.668V112.5ZM689.7 107.55C693.167 107.55 695.917 108.6 697.95 110.7C700.017 112.8 701.05 115.717 701.05 119.45V135.75H692.55V120.6C692.55 118.8 692.067 117.417 691.1 116.45C690.167 115.45 688.867 114.95 687.2 114.95C685.533 114.95 684.217 115.45 683.25 116.45C682.317 117.417 681.85 118.8 681.85 120.6V135.75H673.35V120.6C673.35 118.8 672.867 117.417 671.9 116.45C670.967 115.45 669.667 114.95 668 114.95C666.333 114.95 665.017 115.45 664.05 116.45C663.117 117.417 662.65 118.8 662.65 120.6V135.75H654.1V107.85H662.65V111.35C663.517 110.183 664.65 109.267 666.05 108.6C667.45 107.9 669.033 107.55 670.8 107.55C672.9 107.55 674.767 108 676.4 108.9C678.067 109.8 679.367 111.083 680.3 112.75C681.267 111.217 682.583 109.967 684.25 109C685.917 108.033 687.733 107.55 689.7 107.55ZM711.33 104.95C709.83 104.95 708.596 104.517 707.63 103.65C706.696 102.75 706.23 101.65 706.23 100.35C706.23 99.0167 706.696 97.9167 707.63 97.05C708.596 96.15 709.83 95.7 711.33 95.7C712.796 95.7 713.996 96.15 714.93 97.05C715.896 97.9167 716.38 99.0167 716.38 100.35C716.38 101.65 715.896 102.75 714.93 103.65C713.996 104.517 712.796 104.95 711.33 104.95ZM715.58 107.85V135.75H707.03V107.85H715.58ZM733.126 136.15C730.692 136.15 728.526 135.733 726.626 134.9C724.726 134.067 723.226 132.933 722.126 131.5C721.026 130.033 720.409 128.4 720.276 126.6H728.726C728.826 127.567 729.276 128.35 730.076 128.95C730.876 129.55 731.859 129.85 733.026 129.85C734.092 129.85 734.909 129.65 735.476 129.25C736.076 128.817 736.376 128.267 736.376 127.6C736.376 126.8 735.959 126.217 735.126 125.85C734.292 125.45 732.942 125.017 731.076 124.55C729.076 124.083 727.409 123.6 726.076 123.1C724.742 122.567 723.592 121.75 722.626 120.65C721.659 119.517 721.176 118 721.176 116.1C721.176 114.5 721.609 113.05 722.476 111.75C723.376 110.417 724.676 109.367 726.376 108.6C728.109 107.833 730.159 107.45 732.526 107.45C736.026 107.45 738.776 108.317 740.776 110.05C742.809 111.783 743.976 114.083 744.276 116.95H736.376C736.242 115.983 735.809 115.217 735.076 114.65C734.376 114.083 733.442 113.8 732.276 113.8C731.276 113.8 730.509 114 729.976 114.4C729.442 114.767 729.176 115.283 729.176 115.95C729.176 116.75 729.592 117.35 730.426 117.75C731.292 118.15 732.626 118.55 734.426 118.95C736.492 119.483 738.176 120.017 739.476 120.55C740.776 121.05 741.909 121.883 742.876 123.05C743.876 124.183 744.392 125.717 744.426 127.65C744.426 129.283 743.959 130.75 743.026 132.05C742.126 133.317 740.809 134.317 739.076 135.05C737.376 135.783 735.392 136.15 733.126 136.15ZM761.007 136.15C758.573 136.15 756.407 135.733 754.507 134.9C752.607 134.067 751.107 132.933 750.007 131.5C748.907 130.033 748.29 128.4 748.157 126.6H756.607C756.707 127.567 757.157 128.35 757.957 128.95C758.757 129.55 759.74 129.85 760.907 129.85C761.973 129.85 762.79 129.65 763.357 129.25C763.957 128.817 764.257 128.267 764.257 127.6C764.257 126.8 763.84 126.217 763.007 125.85C762.173 125.45 760.823 125.017 758.957 124.55C756.957 124.083 755.29 123.6 753.957 123.1C752.623 122.567 751.473 121.75 750.507 120.65C749.54 119.517 749.057 118 749.057 116.1C749.057 114.5 749.49 113.05 750.357 111.75C751.257 110.417 752.557 109.367 754.257 108.6C755.99 107.833 758.04 107.45 760.407 107.45C763.907 107.45 766.657 108.317 768.657 110.05C770.69 111.783 771.857 114.083 772.157 116.95H764.257C764.123 115.983 763.69 115.217 762.957 114.65C762.257 114.083 761.323 113.8 760.157 113.8C759.157 113.8 758.39 114 757.857 114.4C757.323 114.767 757.057 115.283 757.057 115.95C757.057 116.75 757.473 117.35 758.307 117.75C759.173 118.15 760.507 118.55 762.307 118.95C764.373 119.483 766.057 120.017 767.357 120.55C768.657 121.05 769.79 121.883 770.757 123.05C771.757 124.183 772.273 125.717 772.307 127.65C772.307 129.283 771.84 130.75 770.907 132.05C770.007 133.317 768.69 134.317 766.957 135.05C765.257 135.783 763.273 136.15 761.007 136.15ZM786.433 121.75C786.433 118.883 786.967 116.367 788.033 114.2C789.133 112.033 790.617 110.367 792.483 109.2C794.35 108.033 796.433 107.45 798.733 107.45C800.7 107.45 802.417 107.85 803.883 108.65C805.383 109.45 806.533 110.5 807.333 111.8V107.85H815.883V135.75H807.333V131.8C806.5 133.1 805.333 134.15 803.833 134.95C802.367 135.75 800.65 136.15 798.683 136.15C796.417 136.15 794.35 135.567 792.483 134.4C790.617 133.2 789.133 131.517 788.033 129.35C786.967 127.15 786.433 124.617 786.433 121.75ZM807.333 121.8C807.333 119.667 806.733 117.983 805.533 116.75C804.367 115.517 802.933 114.9 801.233 114.9C799.533 114.9 798.083 115.517 796.883 116.75C795.717 117.95 795.133 119.617 795.133 121.75C795.133 123.883 795.717 125.583 796.883 126.85C798.083 128.083 799.533 128.7 801.233 128.7C802.933 128.7 804.367 128.083 805.533 126.85C806.733 125.617 807.333 123.933 807.333 121.8ZM830.964 121.75C830.964 118.883 831.498 116.367 832.564 114.2C833.664 112.033 835.148 110.367 837.014 109.2C838.881 108.033 840.964 107.45 843.264 107.45C845.098 107.45 846.764 107.833 848.264 108.6C849.798 109.367 850.998 110.4 851.864 111.7V98.75H860.414V135.75H851.864V131.75C851.064 133.083 849.914 134.15 848.414 134.95C846.948 135.75 845.231 136.15 843.264 136.15C840.964 136.15 838.881 135.567 837.014 134.4C835.148 133.2 833.664 131.517 832.564 129.35C831.498 127.15 830.964 124.617 830.964 121.75ZM851.864 121.8C851.864 119.667 851.264 117.983 850.064 116.75C848.898 115.517 847.464 114.9 845.764 114.9C844.064 114.9 842.614 115.517 841.414 116.75C840.248 117.95 839.664 119.617 839.664 121.75C839.664 123.883 840.248 125.583 841.414 126.85C842.614 128.083 844.064 128.7 845.764 128.7C847.464 128.7 848.898 128.083 850.064 126.85C851.264 125.617 851.864 123.933 851.864 121.8ZM875.15 112.5C876.15 110.967 877.4 109.767 878.9 108.9C880.4 108 882.067 107.55 883.9 107.55V116.6H881.55C879.417 116.6 877.817 117.067 876.75 118C875.683 118.9 875.15 120.5 875.15 122.8V135.75H866.6V107.85H875.15V112.5ZM900.687 136.15C897.953 136.15 895.487 135.567 893.287 134.4C891.12 133.233 889.403 131.567 888.137 129.4C886.903 127.233 886.287 124.7 886.287 121.8C886.287 118.933 886.92 116.417 888.187 114.25C889.453 112.05 891.187 110.367 893.387 109.2C895.587 108.033 898.053 107.45 900.787 107.45C903.52 107.45 905.987 108.033 908.187 109.2C910.387 110.367 912.12 112.05 913.387 114.25C914.653 116.417 915.287 118.933 915.287 121.8C915.287 124.667 914.637 127.2 913.337 129.4C912.07 131.567 910.32 133.233 908.087 134.4C905.887 135.567 903.42 136.15 900.687 136.15ZM900.687 128.75C902.32 128.75 903.703 128.15 904.837 126.95C906.003 125.75 906.587 124.033 906.587 121.8C906.587 119.567 906.02 117.85 904.887 116.65C903.787 115.45 902.42 114.85 900.787 114.85C899.12 114.85 897.737 115.45 896.637 116.65C895.537 117.817 894.987 119.533 894.987 121.8C894.987 124.033 895.52 125.75 896.587 126.95C897.687 128.15 899.053 128.75 900.687 128.75ZM928.373 111.8C929.206 110.5 930.356 109.45 931.823 108.65C933.289 107.85 935.006 107.45 936.973 107.45C939.273 107.45 941.356 108.033 943.223 109.2C945.089 110.367 946.556 112.033 947.623 114.2C948.723 116.367 949.273 118.883 949.273 121.75C949.273 124.617 948.723 127.15 947.623 129.35C946.556 131.517 945.089 133.2 943.223 134.4C941.356 135.567 939.273 136.15 936.973 136.15C935.039 136.15 933.323 135.75 931.823 134.95C930.356 134.15 929.206 133.117 928.373 131.85V149.05H919.823V107.85H928.373V111.8ZM940.573 121.75C940.573 119.617 939.973 117.95 938.773 116.75C937.606 115.517 936.156 114.9 934.423 114.9C932.723 114.9 931.273 115.517 930.073 116.75C928.906 117.983 928.323 119.667 928.323 121.8C928.323 123.933 928.906 125.617 930.073 126.85C931.273 128.083 932.723 128.7 934.423 128.7C936.123 128.7 937.573 128.083 938.773 126.85C939.973 125.583 940.573 123.883 940.573 121.75Z" fill="white"/>
<path d="M446.659 166.659H448.705C448.611 164.026 446.182 162.057 442.807 162.057C439.466 162.057 436.841 164 436.841 166.932C436.841 169.284 438.545 170.682 441.273 171.466L443.42 172.08C445.261 172.591 446.898 173.239 446.898 174.977C446.898 176.886 445.057 178.148 442.636 178.148C440.557 178.148 438.716 177.227 438.545 175.25H436.364C436.568 178.114 438.886 180.057 442.636 180.057C446.659 180.057 448.943 177.841 448.943 175.011C448.943 171.739 445.841 170.682 444.034 170.205L442.261 169.727C440.966 169.386 438.886 168.705 438.886 166.83C438.886 165.159 440.42 163.932 442.739 163.932C444.852 163.932 446.455 164.938 446.659 166.659ZM460.396 174.398C460.396 176.852 458.521 177.977 457.021 177.977C455.35 177.977 454.157 176.75 454.157 174.841V166.659H452.146V174.977C452.146 178.318 453.918 179.92 456.373 179.92C458.35 179.92 459.646 178.864 460.259 177.534H460.396V179.75H462.407V166.659H460.396V174.398ZM466.364 179.75H468.307V177.739H468.545C468.989 178.455 469.841 180.023 472.364 180.023C475.636 180.023 477.92 177.398 477.92 173.239C477.92 169.114 475.636 166.489 472.33 166.489C469.773 166.489 468.989 168.057 468.545 168.739H468.375V162.295H466.364V179.75ZM468.341 173.205C468.341 170.273 469.636 168.295 472.091 168.295C474.648 168.295 475.909 170.443 475.909 173.205C475.909 176 474.614 178.216 472.091 178.216C469.67 178.216 468.341 176.17 468.341 173.205ZM490.27 169.591C489.639 167.733 488.224 166.489 485.634 166.489C482.872 166.489 480.827 168.057 480.827 170.273C480.827 172.08 481.901 173.29 484.304 173.852L486.486 174.364C487.807 174.67 488.429 175.301 488.429 176.205C488.429 177.33 487.236 178.25 485.361 178.25C483.716 178.25 482.685 177.543 482.327 176.136L480.418 176.614C480.886 178.838 482.719 180.023 485.395 180.023C488.438 180.023 490.509 178.361 490.509 176.102C490.509 174.278 489.366 173.128 487.031 172.557L485.088 172.08C483.537 171.696 482.838 171.176 482.838 170.17C482.838 169.045 484.031 168.227 485.634 168.227C487.389 168.227 488.114 169.199 488.463 170.102L490.27 169.591ZM498.854 180.023C501.752 180.023 503.661 178.25 504.002 175.932H501.991C501.616 177.364 500.423 178.216 498.854 178.216C496.468 178.216 494.934 176.239 494.934 173.205C494.934 170.239 496.502 168.295 498.854 168.295C500.627 168.295 501.684 169.386 501.991 170.58H504.002C503.661 168.125 501.582 166.489 498.82 166.489C495.275 166.489 492.923 169.284 492.923 173.273C492.923 177.193 495.173 180.023 498.854 180.023ZM506.942 179.75H508.954V171.466C508.954 169.693 510.352 168.398 512.261 168.398C512.798 168.398 513.352 168.5 513.488 168.534V166.489C513.258 166.472 512.729 166.455 512.431 166.455C510.863 166.455 509.499 167.341 509.022 168.636H508.886V166.659H506.942V179.75ZM515.872 179.75H517.884V166.659H515.872V179.75ZM516.895 164.477C517.679 164.477 518.327 163.864 518.327 163.114C518.327 162.364 517.679 161.75 516.895 161.75C516.111 161.75 515.463 162.364 515.463 163.114C515.463 163.864 516.111 164.477 516.895 164.477ZM521.84 179.75H523.783V177.739H524.022C524.465 178.455 525.317 180.023 527.84 180.023C531.113 180.023 533.397 177.398 533.397 173.239C533.397 169.114 531.113 166.489 527.806 166.489C525.249 166.489 524.465 168.057 524.022 168.739H523.852V162.295H521.84V179.75ZM523.817 173.205C523.817 170.273 525.113 168.295 527.567 168.295C530.124 168.295 531.386 170.443 531.386 173.205C531.386 176 530.09 178.216 527.567 178.216C525.147 178.216 523.817 176.17 523.817 173.205ZM541.962 180.023C544.621 180.023 546.565 178.693 547.178 176.716L545.235 176.17C544.724 177.534 543.539 178.216 541.962 178.216C539.602 178.216 537.974 176.69 537.88 173.886H547.383V173.034C547.383 168.159 544.485 166.489 541.758 166.489C538.212 166.489 535.86 169.284 535.86 173.307C535.86 177.33 538.178 180.023 541.962 180.023ZM537.88 172.148C538.016 170.111 539.457 168.295 541.758 168.295C543.94 168.295 545.337 169.932 545.337 172.148H537.88ZM563.022 166.659H560.09V165.33C560.09 164.034 560.636 163.352 561.965 163.352C562.545 163.352 562.886 163.489 563.09 163.557L563.67 161.818C563.363 161.682 562.749 161.477 561.761 161.477C559.886 161.477 558.079 162.602 558.079 164.852V166.659H555.965V168.364H558.079V179.75H560.09V168.364H563.022V166.659ZM570.62 180.023C574.165 180.023 576.552 177.33 576.552 173.273C576.552 169.182 574.165 166.489 570.62 166.489C567.075 166.489 564.688 169.182 564.688 173.273C564.688 177.33 567.075 180.023 570.62 180.023ZM570.62 178.216C567.927 178.216 566.7 175.898 566.7 173.273C566.7 170.648 567.927 168.295 570.62 168.295C573.313 168.295 574.54 170.648 574.54 173.273C574.54 175.898 573.313 178.216 570.62 178.216ZM579.622 179.75H581.634V171.466C581.634 169.693 583.031 168.398 584.94 168.398C585.477 168.398 586.031 168.5 586.168 168.534V166.489C585.938 166.472 585.409 166.455 585.111 166.455C583.543 166.455 582.179 167.341 581.702 168.636H581.565V166.659H579.622V179.75ZM600.995 166.659H598.2V163.523H596.188V166.659H594.211V168.364H596.188V176.545C596.188 178.83 598.029 179.92 599.734 179.92C600.484 179.92 600.961 179.784 601.234 179.682L600.825 177.875C600.654 177.909 600.381 177.977 599.938 177.977C599.052 177.977 598.2 177.705 598.2 176V168.364H600.995V166.659ZM606.313 171.875C606.313 169.591 607.771 168.295 609.756 168.295C611.648 168.295 612.79 169.489 612.79 171.568V179.75H614.802V171.432C614.802 168.065 613.012 166.489 610.336 166.489C608.273 166.489 607.097 167.349 606.484 168.705H606.313V162.295H604.302V179.75H606.313V171.875ZM623.97 180.023C626.629 180.023 628.572 178.693 629.186 176.716L627.243 176.17C626.732 177.534 625.547 178.216 623.97 178.216C621.609 178.216 619.982 176.69 619.888 173.886H629.391V173.034C629.391 168.159 626.493 166.489 623.766 166.489C620.22 166.489 617.868 169.284 617.868 173.307C617.868 177.33 620.186 180.023 623.97 180.023ZM619.888 172.148C620.024 170.111 621.464 168.295 623.766 168.295C625.947 168.295 627.345 169.932 627.345 172.148H619.888ZM641.212 162.295H639.2V179.75H641.212V162.295ZM648.748 180.057C651.032 180.057 652.225 178.83 652.634 177.977H652.737V179.75H654.748V171.125C654.748 166.966 651.577 166.489 649.907 166.489C647.93 166.489 645.68 167.17 644.657 169.557L646.566 170.239C647.009 169.284 648.058 168.261 649.975 168.261C651.825 168.261 652.737 169.241 652.737 170.92V170.989C652.737 171.96 651.748 171.875 649.362 172.182C646.933 172.497 644.282 173.034 644.282 176.034C644.282 178.591 646.259 180.057 648.748 180.057ZM649.055 178.25C647.452 178.25 646.293 177.534 646.293 176.136C646.293 174.602 647.691 174.125 649.259 173.92C650.112 173.818 652.396 173.58 652.737 173.17V175.011C652.737 176.648 651.441 178.25 649.055 178.25ZM664.112 166.659H661.317V163.523H659.305V166.659H657.328V168.364H659.305V176.545C659.305 178.83 661.146 179.92 662.851 179.92C663.601 179.92 664.078 179.784 664.351 179.682L663.942 177.875C663.771 177.909 663.499 177.977 663.055 177.977C662.169 177.977 661.317 177.705 661.317 176V168.364H664.112V166.659ZM672.486 180.023C675.145 180.023 677.088 178.693 677.702 176.716L675.759 176.17C675.247 177.534 674.062 178.216 672.486 178.216C670.125 178.216 668.497 176.69 668.403 173.886H677.906V173.034C677.906 168.159 675.009 166.489 672.281 166.489C668.736 166.489 666.384 169.284 666.384 173.307C666.384 177.33 668.702 180.023 672.486 180.023ZM668.403 172.148C668.54 170.111 669.98 168.295 672.281 168.295C674.463 168.295 675.861 169.932 675.861 172.148H668.403ZM690.239 169.591C689.608 167.733 688.193 166.489 685.602 166.489C682.841 166.489 680.795 168.057 680.795 170.273C680.795 172.08 681.869 173.29 684.273 173.852L686.455 174.364C687.776 174.67 688.398 175.301 688.398 176.205C688.398 177.33 687.205 178.25 685.33 178.25C683.685 178.25 682.653 177.543 682.295 176.136L680.386 176.614C680.855 178.838 682.688 180.023 685.364 180.023C688.406 180.023 690.477 178.361 690.477 176.102C690.477 174.278 689.335 173.128 687 172.557L685.057 172.08C683.506 171.696 682.807 171.176 682.807 170.17C682.807 169.045 684 168.227 685.602 168.227C687.358 168.227 688.082 169.199 688.432 170.102L690.239 169.591ZM699.198 166.659H696.403V163.523H694.391V166.659H692.414V168.364H694.391V176.545C694.391 178.83 696.232 179.92 697.937 179.92C698.687 179.92 699.164 179.784 699.437 179.682L699.028 177.875C698.857 177.909 698.585 177.977 698.141 177.977C697.255 177.977 696.403 177.705 696.403 176V168.364H699.198V166.659ZM710.985 171.875C710.985 169.591 712.4 168.295 714.326 168.295C716.192 168.295 717.326 169.514 717.326 171.568V179.75H719.337V171.432C719.337 168.091 717.556 166.489 714.906 166.489C712.928 166.489 711.701 167.375 711.087 168.705H710.917V166.659H708.974V179.75H710.985V171.875ZM728.501 180.023C731.161 180.023 733.104 178.693 733.717 176.716L731.774 176.17C731.263 177.534 730.078 178.216 728.501 178.216C726.141 178.216 724.513 176.69 724.419 173.886H733.922V173.034C733.922 168.159 731.024 166.489 728.297 166.489C724.751 166.489 722.399 169.284 722.399 173.307C722.399 177.33 724.717 180.023 728.501 180.023ZM724.419 172.148C724.555 170.111 725.996 168.295 728.297 168.295C730.479 168.295 731.876 169.932 731.876 172.148H724.419ZM739.947 179.75H741.925L744.788 169.693H744.993L747.857 179.75H749.834L753.822 166.659H751.709L748.879 176.648H748.743L745.982 166.659H743.834L741.038 176.682H740.902L738.072 166.659H735.959L739.947 179.75ZM765.754 169.591C765.124 167.733 763.709 166.489 761.118 166.489C758.357 166.489 756.311 168.057 756.311 170.273C756.311 172.08 757.385 173.29 759.788 173.852L761.97 174.364C763.291 174.67 763.913 175.301 763.913 176.205C763.913 177.33 762.72 178.25 760.845 178.25C759.2 178.25 758.169 177.543 757.811 176.136L755.902 176.614C756.371 178.838 758.203 180.023 760.879 180.023C763.922 180.023 765.993 178.361 765.993 176.102C765.993 174.278 764.851 173.128 762.516 172.557L760.572 172.08C759.021 171.696 758.322 171.176 758.322 170.17C758.322 169.045 759.516 168.227 761.118 168.227C762.874 168.227 763.598 169.199 763.947 170.102L765.754 169.591ZM772.021 177.364H769.839L769.737 178.318C769.489 180.628 769.004 182.929 768.782 184.011H770.316C770.725 182.852 771.594 180.227 771.884 178.284L772.021 177.364ZM787.44 180.023C789.963 180.023 790.815 178.455 791.259 177.739H791.497V179.75H793.44V162.295H791.429V168.739H791.259C790.815 168.057 790.031 166.489 787.474 166.489C784.168 166.489 781.884 169.114 781.884 173.239C781.884 177.398 784.168 180.023 787.44 180.023ZM787.713 178.216C785.19 178.216 783.895 176 783.895 173.205C783.895 170.443 785.156 168.295 787.713 168.295C790.168 168.295 791.463 170.273 791.463 173.205C791.463 176.17 790.134 178.216 787.713 178.216ZM797.403 179.75H799.415V171.466C799.415 169.693 800.812 168.398 802.722 168.398C803.259 168.398 803.812 168.5 803.949 168.534V166.489C803.719 166.472 803.19 166.455 802.892 166.455C801.324 166.455 799.96 167.341 799.483 168.636H799.347V166.659H797.403V179.75ZM811.253 180.023C814.798 180.023 817.185 177.33 817.185 173.273C817.185 169.182 814.798 166.489 811.253 166.489C807.707 166.489 805.321 169.182 805.321 173.273C805.321 177.33 807.707 180.023 811.253 180.023ZM811.253 178.216C808.56 178.216 807.332 175.898 807.332 173.273C807.332 170.648 808.56 168.295 811.253 168.295C813.946 168.295 815.173 170.648 815.173 173.273C815.173 175.898 813.946 178.216 811.253 178.216ZM820.255 184.659H822.266V177.739H822.437C822.88 178.455 823.732 180.023 826.255 180.023C829.528 180.023 831.812 177.398 831.812 173.239C831.812 169.114 829.528 166.489 826.221 166.489C823.664 166.489 822.88 168.057 822.437 168.739H822.198V166.659H820.255V184.659ZM822.232 173.205C822.232 170.273 823.528 168.295 825.982 168.295C828.539 168.295 829.8 170.443 829.8 173.205C829.8 176 828.505 178.216 825.982 178.216C823.562 178.216 822.232 176.17 822.232 173.205ZM844.153 169.591C843.522 167.733 842.107 166.489 839.516 166.489C836.755 166.489 834.71 168.057 834.71 170.273C834.71 172.08 835.783 173.29 838.187 173.852L840.369 174.364C841.69 174.67 842.312 175.301 842.312 176.205C842.312 177.33 841.119 178.25 839.244 178.25C837.599 178.25 836.567 177.543 836.21 176.136L834.3 176.614C834.769 178.838 836.602 180.023 839.278 180.023C842.32 180.023 844.391 178.361 844.391 176.102C844.391 174.278 843.249 173.128 840.914 172.557L838.971 172.08C837.42 171.696 836.721 171.176 836.721 170.17C836.721 169.045 837.914 168.227 839.516 168.227C841.272 168.227 841.996 169.199 842.346 170.102L844.153 169.591ZM859.112 179.989C860.714 179.989 862.504 179.426 863.638 178.267L864.874 179.75H867.294L864.882 176.81C865.538 175.966 866.271 174.551 866.271 172.114H864.328C864.328 173.307 864.055 174.364 863.604 175.241L859.811 170.614L861.089 169.659C862.521 168.602 863.408 167.443 863.408 165.773C863.408 163.83 861.805 162.125 859.18 162.125C856.624 162.125 854.953 163.727 854.953 166.08C854.953 167.631 855.797 168.824 856.999 170.273C854.962 171.688 853.555 173 853.555 175.114C853.555 177.943 855.669 179.989 859.112 179.989ZM862.436 176.81C861.473 177.713 860.254 178.216 859.044 178.216C856.964 178.216 855.601 176.75 855.601 175.114C855.601 174.636 856.044 173.409 857.612 172.25L858.26 171.773L862.436 176.81ZM858.575 169.114C857.723 168.074 856.999 167.085 856.999 166.114C856.999 165.023 857.919 163.864 859.249 163.864C860.51 163.864 861.362 164.886 861.362 165.773C861.362 166.966 860.714 167.614 859.726 168.261L858.575 169.114ZM881.589 180.023C884.487 180.023 886.396 178.25 886.737 175.932H884.725C884.35 177.364 883.157 178.216 881.589 178.216C879.202 178.216 877.668 176.239 877.668 173.205C877.668 170.239 879.237 168.295 881.589 168.295C883.362 168.295 884.418 169.386 884.725 170.58H886.737C886.396 168.125 884.316 166.489 881.555 166.489C878.009 166.489 875.657 169.284 875.657 173.273C875.657 177.193 877.907 180.023 881.589 180.023ZM894.995 180.023C898.54 180.023 900.927 177.33 900.927 173.273C900.927 169.182 898.54 166.489 894.995 166.489C891.45 166.489 889.063 169.182 889.063 173.273C889.063 177.33 891.45 180.023 894.995 180.023ZM894.995 178.216C892.302 178.216 891.075 175.898 891.075 173.273C891.075 170.648 892.302 168.295 894.995 168.295C897.688 168.295 898.915 170.648 898.915 173.273C898.915 175.898 897.688 178.216 894.995 178.216ZM906.009 162.295H903.997V179.75H906.009V162.295ZM911.704 162.295H909.692V179.75H911.704V162.295ZM920.876 180.023C923.536 180.023 925.479 178.693 926.092 176.716L924.149 176.17C923.638 177.534 922.453 178.216 920.876 178.216C918.516 178.216 916.888 176.69 916.794 173.886H926.297V173.034C926.297 168.159 923.399 166.489 920.672 166.489C917.126 166.489 914.774 169.284 914.774 173.307C914.774 177.33 917.092 180.023 920.876 180.023ZM916.794 172.148C916.93 170.111 918.371 168.295 920.672 168.295C922.854 168.295 924.251 169.932 924.251 172.148H916.794ZM934.675 180.023C937.572 180.023 939.482 178.25 939.822 175.932H937.811C937.436 177.364 936.243 178.216 934.675 178.216C932.288 178.216 930.754 176.239 930.754 173.205C930.754 170.239 932.322 168.295 934.675 168.295C936.447 168.295 937.504 169.386 937.811 170.58H939.822C939.482 168.125 937.402 166.489 934.641 166.489C931.095 166.489 928.743 169.284 928.743 173.273C928.743 177.193 930.993 180.023 934.675 180.023ZM948.456 166.659H945.661V163.523H943.649V166.659H941.672V168.364H943.649V176.545C943.649 178.83 945.49 179.92 947.195 179.92C947.945 179.92 948.422 179.784 948.695 179.682L948.286 177.875C948.115 177.909 947.842 177.977 947.399 177.977C946.513 177.977 945.661 177.705 945.661 176V168.364H948.456V166.659ZM951.482 179.75H953.493V166.659H951.482V179.75ZM952.504 164.477C953.288 164.477 953.936 163.864 953.936 163.114C953.936 162.364 953.288 161.75 952.504 161.75C951.72 161.75 951.072 162.364 951.072 163.114C951.072 163.864 951.72 164.477 952.504 164.477ZM957.45 179.75H959.393V177.739H959.631C960.075 178.455 960.927 180.023 963.45 180.023C966.722 180.023 969.006 177.398 969.006 173.239C969.006 169.114 966.722 166.489 963.415 166.489C960.859 166.489 960.075 168.057 959.631 168.739H959.461V162.295H957.45V179.75ZM959.427 173.205C959.427 170.273 960.722 168.295 963.177 168.295C965.734 168.295 966.995 170.443 966.995 173.205C966.995 176 965.7 178.216 963.177 178.216C960.756 178.216 959.427 176.17 959.427 173.205ZM974.094 162.295H972.083V179.75H974.094V162.295ZM983.267 180.023C985.926 180.023 987.869 178.693 988.483 176.716L986.54 176.17C986.028 177.534 984.844 178.216 983.267 178.216C980.906 178.216 979.278 176.69 979.185 173.886H988.688V173.034C988.688 168.159 985.79 166.489 983.062 166.489C979.517 166.489 977.165 169.284 977.165 173.307C977.165 177.33 979.483 180.023 983.267 180.023ZM979.185 172.148C979.321 170.111 980.761 168.295 983.062 168.295C985.244 168.295 986.642 169.932 986.642 172.148H979.185ZM1001.02 169.591C1000.39 167.733 998.974 166.489 996.384 166.489C993.622 166.489 991.577 168.057 991.577 170.273C991.577 172.08 992.651 173.29 995.054 173.852L997.236 174.364C998.557 174.67 999.179 175.301 999.179 176.205C999.179 177.33 997.986 178.25 996.111 178.25C994.466 178.25 993.435 177.543 993.077 176.136L991.168 176.614C991.636 178.838 993.469 180.023 996.145 180.023C999.188 180.023 1001.26 178.361 1001.26 176.102C1001.26 174.278 1000.12 173.128 997.781 172.557L995.838 172.08C994.287 171.696 993.588 171.176 993.588 170.17C993.588 169.045 994.781 168.227 996.384 168.227C998.139 168.227 998.864 169.199 999.213 170.102L1001.02 169.591Z" fill="white"/>
</svg>
